<?xml version="1.0" encoding="UTF-8"?>
<svg version="1.1" xmlns="http://www.w3.org/2000/svg" width="1200" height="432">
<path d="M0 0 C8.47807022 7.71986882 14.0837899 14.25834395 20.40234375 24.1875 C20.73234375 11.3175 21.06234375 -1.5525 21.40234375 -14.8125 C45.82234375 -14.8125 70.24234375 -14.8125 95.40234375 -14.8125 C95.73234375 16.8675 96.06234375 48.5475 96.40234375 81.1875 C98.05234375 74.2575 99.70234375 67.3275 101.40234375 60.1875 C102.95167717 55.94721905 104.41906255 52.17672846 106.40234375 48.1875 C107.17191406 46.6096875 107.17191406 46.6096875 107.95703125 45 C122.19804237 17.17424555 146.71093567 -1.86116423 176.1328125 -11.5 C218.1785977 -24.68782777 265.60766047 -22.91981301 305.08984375 -2.5625 C330.22664436 10.94803372 350.21715989 33.2930973 358.87109375 60.67578125 C362.92082922 74.34774534 364.77902925 87.6516426 364.71484375 101.9375 C364.70638428 103.9170166 364.70638428 103.9170166 364.69775391 105.93652344 C364.35719033 133.35020505 355.87498737 159.58207444 337.40234375 180.1875 C336.86480469 180.86683594 336.32726562 181.54617188 335.7734375 182.24609375 C316.62982621 206.09164465 282.32712487 218.42923827 252.9921875 221.8515625 C212.26595458 226.09409039 169.63457086 219.91979779 136.77734375 193.875 C127.7567092 186.22192521 119.71042798 178.23143993 113.40234375 168.1875 C112.83 167.32125 112.25765625 166.455 111.66796875 165.5625 C107.92093055 159.59376659 105.13252625 153.44761582 102.65234375 146.875 C102.37068359 146.141604 102.08902344 145.40820801 101.79882812 144.65258789 C99.9888986 139.64126453 98.81364845 134.58761466 97.80371094 129.36254883 C97.59976212 128.32459042 97.59976212 128.32459042 97.39169312 127.26566315 C97.05953266 125.57340699 96.7306069 123.88051647 96.40234375 122.1875 C96.39021347 123.61758896 96.39021347 123.61758896 96.37783813 125.0765686 C96.29956489 134.16439896 96.2116396 143.25209433 96.11481667 152.33974648 C96.06536219 157.00918372 96.01903863 161.67860368 95.98046875 166.34814453 C95.26265426 252.04538463 95.26265426 252.04538463 68.40234375 282.1875 C67.7371875 282.94675781 67.07203125 283.70601563 66.38671875 284.48828125 C51.94677737 299.97110729 31.56206013 307.48341641 11.40234375 312.1875 C10.41258545 312.41928955 10.41258545 312.41928955 9.40283203 312.65576172 C-33.0831999 322.19125336 -94.95311429 322.00977098 -134.59765625 302.1875 C-133.50507119 280.83290743 -132.30905961 259.50300135 -130.59765625 238.1875 C-126.26914114 238.95889587 -122.97032621 240.38323241 -119.03515625 242.375 C-89.61100273 256.62738205 -51.43810828 261.52190284 -19.91796875 252.0859375 C-13.1400063 249.65964609 -7.34810699 246.49427218 -1.59765625 242.1875 C-0.73140625 241.61 0.13484375 241.0325 1.02734375 240.4375 C12.6396278 229.4363888 17.81699319 213.18894502 18.52246094 197.51953125 C18.64542994 191.73797243 18.56224125 185.96749851 18.40234375 180.1875 C17.95246094 180.79335938 17.50257813 181.39921875 17.0390625 182.0234375 C1.63973034 202.08268781 -19.47231899 214.10225805 -44.44921875 217.75 C-71.60424043 220.9661507 -100.08665904 215.15054209 -121.97265625 198.3125 C-123.53678545 196.96310719 -125.07806299 195.58685608 -126.59765625 194.1875 C-127.48710938 193.38957031 -128.3765625 192.59164062 -129.29296875 191.76953125 C-145.23229825 176.7403863 -154.54944638 157.28095908 -159.59765625 136.1875 C-159.76281738 135.51428711 -159.92797852 134.84107422 -160.09814453 134.14746094 C-165.29193375 111.81470439 -164.80660857 84.45542014 -159.59765625 62.1875 C-159.29964111 60.90214355 -159.29964111 60.90214355 -158.99560547 59.59082031 C-156.03755818 47.30218342 -151.89688956 36.14635458 -145.59765625 25.1875 C-145.00855469 24.16011719 -144.41945312 23.13273437 -143.8125 22.07421875 C-131.2452552 1.37691126 -110.95563582 -12.10142867 -87.59765625 -17.8125 C-57.30028728 -24.63250802 -24.22336173 -20.63620833 0 0 Z M193.59375 52.57421875 C190.54596161 56.20874715 188.38691191 59.89777959 186.40234375 64.1875 C186.0465625 64.87070313 185.69078125 65.55390625 185.32421875 66.2578125 C180.63360032 75.74406321 178.9803448 86.69316835 178.40234375 97.1875 C178.36109375 97.86425781 178.31984375 98.54101562 178.27734375 99.23828125 C177.67391937 119.26442771 182.89627174 139.22033006 196.71484375 154.0625 C206.63926118 163.45046244 219.72532416 166.84215526 233.171875 166.47265625 C245.77617613 165.36006377 257.7909949 160.67792405 266.40234375 151.1875 C280.19683447 132.99601536 283.81405469 110.15750894 280.8984375 87.88671875 C278.54718282 72.77713388 272.98018336 56.6349251 260.6953125 46.75 C239.47309338 32.2885219 211.55266657 33.60353223 193.59375 52.57421875 Z M-60.59765625 51.1875 C-61.20351562 51.64382812 -61.809375 52.10015625 -62.43359375 52.5703125 C-71.71256579 60.58969557 -77.36129853 75.30406171 -78.59765625 87.1875 C-79.92660862 107.80708576 -78.0310884 125.86378501 -64.59765625 142.4375 C-57.862177 149.63195569 -48.00121642 154.7476158 -38.12890625 155.42578125 C-23.54903216 155.83032423 -11.33942698 152.20205237 -0.34375 142.12109375 C13.79422313 127.12464786 16.92162492 108.90734665 16.6796875 89.11328125 C16.47368196 82.55082623 15.4000391 77.06148871 12.40234375 71.1875 C11.97824219 70.32511719 11.55414063 69.46273437 11.1171875 68.57421875 C4.49967083 56.42674387 -5.80147151 48.39074694 -18.72265625 43.8125 C-33.6732438 39.59385723 -48.27742567 41.54357419 -60.59765625 51.1875 Z " fill="#2763AE" transform="translate(163.59765625,114.8125)"/>
<path d="M0 0 C27.06 0 54.12 0 82 0 C82.33 42.24 82.66 84.48 83 128 C86.3 124.7 89.6 121.4 93 118 C116.90114496 98.99427028 143.83947735 92.68473364 174 96 C198.95032451 99.60697613 220.28120901 112.68807105 235.6784668 132.55249023 C247.8388783 148.9479413 255.65554789 168.93328732 259 189 C259.33 159.96 259.66 130.92 260 101 C284.09 101 308.18 101 333 101 C333.33 113.87 333.66 126.74 334 140 C335.98 136.04 337.96 132.08 340 128 C342.60163797 124.48985354 345.12144706 121.24687172 348 118 C348.53109375 117.37480469 349.0621875 116.74960938 349.609375 116.10546875 C359.89783123 104.82381996 376.87211679 96.72710934 392.15185547 95.81103516 C395.70766218 95.73156731 399.25592231 95.72718924 402.8125 95.75 C404.00681641 95.74226563 405.20113281 95.73453125 406.43164062 95.7265625 C414.14498961 95.74335803 421.43916459 96.475505 429 98 C429.27667605 109.94251462 428.52571666 121.80350302 427.77319336 133.71655273 C427.56101451 137.08609054 427.35722119 140.45606536 427.15429688 143.82617188 C427.02132716 145.97919722 426.88788095 148.13219321 426.75390625 150.28515625 C426.6934462 151.28724625 426.63298615 152.28933624 426.57069397 153.3217926 C426.51070724 154.25724411 426.45072052 155.19269562 426.38891602 156.15649414 C426.33784195 156.97364395 426.28676788 157.79079376 426.23414612 158.63270569 C425.9865237 161.13624982 425.53202726 163.54250337 425 166 C424.31679687 165.855625 423.63359375 165.71125 422.9296875 165.5625 C404.11022878 162.09702423 382.67046849 161.61504013 366.11328125 172.4375 C365.41589844 172.953125 364.71851563 173.46875 364 174 C363.17757813 174.60328125 362.35515625 175.2065625 361.5078125 175.828125 C347.08571585 188.3182897 342.40668321 208.83513599 341 227 C340.85285968 230.62204687 340.81651772 234.24097224 340.79467773 237.86572266 C340.78477814 238.9010614 340.77487854 239.93640015 340.76467896 241.00311279 C340.73335223 244.39007359 340.70842177 247.77704837 340.68359375 251.1640625 C340.66299926 253.52631982 340.64200217 255.88857365 340.62062073 258.25082397 C340.56565758 264.44192675 340.51613561 270.63306136 340.46777344 276.82421875 C340.40849371 284.2666926 340.34240865 291.7091088 340.27747345 299.15153503 C340.17978843 310.43432122 340.0907106 321.71714588 340 333 C313.6 333 287.2 333 260 333 C259.505 286.965 259.505 286.965 259 240 C257.68 246.27 256.36 252.54 255 259 C253.99330934 262.36522306 253.01913893 265.5094678 251.75 268.75 C251.30394409 269.91619873 251.30394409 269.91619873 250.84887695 271.10595703 C240.72422703 296.84284348 223.20890772 318.06633934 197.65966797 329.67724609 C173.59033974 340.08977962 145.04776443 341.60908407 120.3125 332.75 C100.51239876 324.60699631 87.40977062 311.92963955 76 294 C75.67 306.87 75.34 319.74 75 333 C56.57223038 333.04010881 56.57223038 333.04010881 48.74414062 333.04882812 C43.39330052 333.05481629 38.04247745 333.06191588 32.69165039 333.07543945 C28.37988027 333.08626929 24.06812841 333.09227704 19.75634575 333.09487724 C18.10763702 333.09673132 16.45892934 333.1003516 14.81022835 333.10573006 C12.50896128 333.11294178 10.2077706 333.11399089 7.90649414 333.11352539 C6.5941127 333.115746 5.28173126 333.11796661 3.92958069 333.12025452 C1 333 1 333 0 332 C-0.09741488 330.23286938 -0.12371443 328.46179864 -0.12304783 326.69198513 C-0.12503888 325.53350675 -0.12702993 324.37502837 -0.12908131 323.18144459 C-0.12616847 321.89256259 -0.12325563 320.6036806 -0.12025452 319.27574158 C-0.1206901 317.9054446 -0.12156476 316.5351477 -0.12284368 315.16485125 C-0.12509121 311.38177756 -0.12106386 307.5987319 -0.11606562 303.81566179 C-0.11176499 299.74270333 -0.11320727 295.66974658 -0.1139679 291.5967865 C-0.11449338 284.53426168 -0.11134406 277.47174606 -0.10573006 270.40922356 C-0.09761832 260.19788119 -0.09500017 249.98654329 -0.09374207 239.77519805 C-0.09155103 223.20974865 -0.08488955 206.64430416 -0.07543945 190.07885742 C-0.06626666 173.98282903 -0.05918518 157.88680196 -0.05493164 141.79077148 C-0.05466892 140.79935168 -0.05440619 139.80793187 -0.05413551 138.78646903 C-0.05283051 133.81302802 -0.0515668 128.839587 -0.05032361 123.86614597 C-0.03994939 82.57742628 -0.02151023 41.28871568 0 0 Z M94.5390625 174.703125 C86.3887736 184.88064312 81.78504766 198.01102955 81 211 C80.94714844 211.86882812 80.89429688 212.73765625 80.83984375 213.6328125 C80.26008535 232.53797764 86.51215975 249.82370097 99.25 263.75 C107.4737253 271.53316858 118.73789872 275.9480009 130 276.375 C142.24255221 275.9474823 152.72169868 271.02660324 161.5390625 262.73828125 C175.48151319 247.22453849 177.85413506 226.77689041 177.17919922 206.72021484 C176.18255962 191.59138872 169.19616345 177.14708836 158 167 C137.43766893 151.48806604 110.95518704 155.56561083 94.5390625 174.703125 Z " fill="#2764AD" transform="translate(770,0)"/>
<path d="M0 0 C1.07894531 0.96679688 1.07894531 0.96679688 2.1796875 1.953125 C21.08036548 19.41158258 30.76477641 47.43143551 32.20483398 72.57666016 C32.30260154 76.30376837 32.32925117 80.02166803 32.3125 83.75 C32.30686035 85.06967773 32.3012207 86.38935547 32.29541016 87.74902344 C31.95484658 115.16270505 23.47264362 141.39457444 5 162 C4.46246094 162.67933594 3.92492187 163.35867188 3.37109375 164.05859375 C-15.77251754 187.90414465 -50.07521888 200.24173827 -79.41015625 203.6640625 C-120.13638917 207.90659039 -162.76777289 201.73229779 -195.625 175.6875 C-204.64563455 168.03442521 -212.69191577 160.04393993 -219 150 C-219.57234375 149.13375 -220.1446875 148.2675 -220.734375 147.375 C-238.04145604 119.80619834 -240.87705454 84.27061472 -234 53 C-233.8443457 52.28682617 -233.68869141 51.57365234 -233.52832031 50.83886719 C-226.99979803 22.4443561 -208.47183483 -1.63274028 -184 -17 C-128.81106687 -50.85239095 -46.83181188 -45.09730033 0 0 Z M-138.80859375 34.38671875 C-141.85638214 38.02124715 -144.01543184 41.71027959 -146 46 C-146.35578125 46.68320313 -146.7115625 47.36640625 -147.078125 48.0703125 C-151.76874343 57.55656321 -153.42199895 68.50566835 -154 79 C-154.04125 79.67675781 -154.0825 80.35351562 -154.125 81.05078125 C-154.72842438 101.07692771 -149.50607201 121.03283006 -135.6875 135.875 C-125.76308257 145.26296244 -112.67701959 148.65465526 -99.23046875 148.28515625 C-86.62616762 147.17256377 -74.61134885 142.49042405 -66 133 C-52.20550928 114.80851536 -48.58828906 91.97000894 -51.50390625 69.69921875 C-53.85516093 54.58963388 -59.42216039 38.4474251 -71.70703125 28.5625 C-92.92925037 14.1010219 -120.84967718 15.41603223 -138.80859375 34.38671875 Z " fill="#FABD13" transform="translate(496,133)"/>
<path d="M0 0 C28.05 0 56.1 0 85 0 C86.87422087 4.99792231 88.5796428 9.71771574 90.03117371 14.80847168 C90.30453307 15.76202537 90.30453307 15.76202537 90.58341485 16.73484278 C91.1852874 18.83732192 91.78247088 20.94110206 92.37963867 23.04492188 C92.81328928 24.56340509 93.24723168 26.08180499 93.68144226 27.60012817 C94.85360688 31.70198991 96.02170858 35.80499856 97.18906188 39.90823174 C98.41185967 44.20369966 99.63842189 48.49809238 100.86457825 52.79260254 C103.18333416 60.91600449 105.49872291 69.0403621 107.8128913 77.16507196 C110.44874566 86.41854906 113.08837048 95.67094919 115.72830617 104.9232626 C121.15638829 123.94764981 126.57975476 142.97337861 132 162 C143.01813653 124.406609 153.97913177 86.79838463 164.76251221 49.13684082 C167.11833214 40.91022627 169.47704558 32.68444099 171.8360405 24.45873642 C172.64384953 21.64082224 173.45073708 18.82264552 174.25747681 16.00442505 C174.7414517 14.31560599 175.22544897 12.62679335 175.70947266 10.93798828 C175.92849747 10.17192261 176.14752228 9.40585693 176.3731842 8.61657715 C177.20238383 5.72562145 178.04879854 2.85360439 179 0 C205.07 0 231.14 0 258 0 C257.31216882 4.1269871 256.73607731 7.12082374 255.32373047 10.89794922 C254.9766806 11.83468475 254.62963074 12.77142029 254.27206421 13.73654175 C253.8909549 14.74902985 253.50984558 15.76151794 253.1171875 16.8046875 C252.71537262 17.88638214 252.31355774 18.96807678 251.89956665 20.08255005 C251.02399228 22.43897586 250.14616167 24.79456426 249.26635742 27.14941406 C246.86019596 33.59230296 244.47273812 40.0421061 242.0859375 46.4921875 C241.71200237 47.50201817 241.71200237 47.50201817 241.330513 48.53224945 C235.85804841 63.31619787 230.52814292 78.15010753 225.21809387 92.99300766 C217.20159182 115.39823745 209.07740376 137.75920404 200.82485962 160.0788269 C192.09932631 183.67773411 183.53287406 207.33054935 175 231 C144.97 231 114.94 231 84 231 C78.37587115 217.50209075 78.37587115 217.50209075 76.54321289 212.36572266 C76.12774704 211.20645264 75.71228119 210.04718262 75.28422546 208.8527832 C74.85140762 207.63550537 74.41858978 206.41822754 73.97265625 205.1640625 C73.50302421 203.85088078 73.03307077 202.53781396 72.56282043 201.22485352 C71.57207135 198.45721636 70.5830208 195.68898132 69.59539795 192.92022705 C67.00253837 185.65230606 64.39745625 178.3887603 61.79296875 171.125 C61.53659386 170.40970753 61.28021896 169.69441505 61.01607513 168.95744705 C57.02557316 157.82554604 52.98793237 146.71229214 48.875 135.625 C42.62548859 118.76916534 36.50999339 101.86568576 30.40283203 84.95782471 C25.55509299 71.53871778 20.6920217 58.12587257 15.7578125 44.73828125 C15.34192871 43.60952072 14.92604492 42.48076019 14.49755859 41.3177948 C12.53530844 35.99485665 10.56885787 30.67351551 8.59667969 25.35424805 C7.89512119 23.45493793 7.19362048 21.55560647 6.4921875 19.65625 C6.02487717 18.40229179 6.02487717 18.40229179 5.54812622 17.1230011 C3.4569047 11.45016854 1.74533467 5.81778224 0 0 Z " fill="#47AD44" transform="translate(497,101)"/>
<path d="M0 0 C1.19431641 -0.00773437 2.38863281 -0.01546875 3.61914062 -0.0234375 C11.33248961 -0.00664197 18.62666459 0.725505 26.1875 2.25 C26.46417605 14.19251462 25.71321666 26.05350302 24.96069336 37.96655273 C24.74851451 41.33609054 24.54472119 44.70606536 24.34179688 48.07617188 C24.20882716 50.22919722 24.07538095 52.38219321 23.94140625 54.53515625 C23.8809462 55.53724625 23.82048615 56.53933624 23.75819397 57.5717926 C23.69820724 58.50724411 23.63822052 59.44269562 23.57641602 60.40649414 C23.52534195 61.22364395 23.47426788 62.04079376 23.42164612 62.88270569 C23.1740237 65.38624982 22.71952726 67.79250337 22.1875 70.25 C21.50429687 70.105625 20.82109375 69.96125 20.1171875 69.8125 C1.29772878 66.34702423 -20.14203151 65.86504013 -36.69921875 76.6875 C-37.39660156 77.203125 -38.09398437 77.71875 -38.8125 78.25 C-39.63492187 78.85328125 -40.45734375 79.4565625 -41.3046875 80.078125 C-55.72678415 92.5682897 -60.40581679 113.08513599 -61.8125 131.25 C-61.95964032 134.87204687 -61.99598228 138.49097224 -62.01782227 142.11572266 C-62.02772186 143.1510614 -62.03762146 144.18640015 -62.04782104 145.25311279 C-62.07914777 148.64007359 -62.10407823 152.02704837 -62.12890625 155.4140625 C-62.14950074 157.77631982 -62.17049783 160.13857365 -62.19187927 162.50082397 C-62.24684242 168.69192675 -62.29636439 174.88306136 -62.34472656 181.07421875 C-62.40400629 188.5166926 -62.47009135 195.9591088 -62.53502655 203.40153503 C-62.63271157 214.68432122 -62.7217894 225.96714588 -62.8125 237.25 C-89.2125 237.25 -115.6125 237.25 -142.8125 237.25 C-142.8125 160.69 -142.8125 84.13 -142.8125 5.25 C-118.7225 5.25 -94.6325 5.25 -69.8125 5.25 C-69.4825 18.12 -69.1525 30.99 -68.8125 44.25 C-66.8325 40.29 -64.8525 36.33 -62.8125 32.25 C-60.21086203 28.73985354 -57.69105294 25.49687172 -54.8125 22.25 C-54.28140625 21.62480469 -53.7503125 20.99960938 -53.203125 20.35546875 C-39.44382364 5.267918 -19.60694146 -0.1257527 0 0 Z " fill="#FABD14" transform="translate(1172.8125,95.75)"/>
<path d="M0 0 C7.7869136 6.01644833 14.15722072 13.53682535 15.94140625 23.5 C16.93888979 36.95177796 15.69032456 47.27700787 6.62890625 57.9375 C-1.41885607 66.19704554 -10.38098121 70.31544773 -22.05859375 70.875 C-33.96698824 70.28081815 -43.09516982 65.83360077 -51.30859375 57.375 C-59.32981189 47.71745336 -61.31543849 37.67600774 -60.30224609 25.4609375 C-59.07577035 15.59014273 -53.93919883 7.38307184 -46.24609375 1.25 C-32.28271016 -8.56716816 -14.39059105 -9.76815877 0 0 Z " fill="#2763AE" transform="translate(748.05859375,267.5)"/>
</svg>
